# xmcd CD database file
#
# Track frame offsets:
#	182
#	14017
#	26022
#	37957
#	49030
#	60957
#	72525
#	86887
#	100960
#	112520
#	125165
#	138352
#	152915
#	166687
#	179542
#	191887
#
# Disc length: 2701 seconds
#
# Revision: 0
# Processed by: cddbd v1.5.2PL0 Copyright (c) Steve Scherf et al.
# Submitted via: CDex 1.51
#
DISCID=db0a8b10
DTITLE=carlos cuevas - exitos
DYEAR=1900
DGENRE=Blues
TTITLE0=orgullo
TTITLE1=sin un amor
TTITLE2=perla negra
TTITLE3=luz de luna
TTITLE4=gema
TTITLE5=no trates de mentir
TTITLE6=consentida
TTITLE7=un siglo de ausencia
TTITLE8=los dos
TTITLE9=ahora y siempre
TTITLE10=engañada
TTITLE11=flores negras
TTITLE12=caminemos
TTITLE13=pagina blanca
TTITLE14=el adios de carrasco
TTITLE15=es mi reyna
EXTD=
EXTT0=
EXTT1=
EXTT2=
EXTT3=
EXTT4=
EXTT5=
EXTT6=
EXTT7=
EXTT8=
EXTT9=
EXTT10=
EXTT11=
EXTT12=
EXTT13=
EXTT14=
EXTT15=
PLAYORDER=
